<svg version="1.2" baseProfile="tiny-ps" xmlns="http://www.w3.org/2000/svg" viewBox="0 0 401 174" width="401" height="174">
	<title>-e- logo 3</title>
	<style>
		tspan { white-space:pre }
		.shp0 { fill: #ffffff;stroke: #ffffff } 
		.shp1 { fill: none;stroke: #ffffff;stroke-width: 3 } 
	</style>
	<g id="-e- logo 3">
		<g id="&lt;Group&gt;">
			<g id="&lt;Group&gt;">
				<path id="&lt;Compound Path&gt;" fill-rule="evenodd" class="shp0" d="M45.57 64.06L42.97 64.06L42.97 73.88L37.97 73.88L37.97 48.36L47.94 48.36C52.91 48.36 56.08 51.78 56.08 56.21C56.08 59.77 53.99 62.47 50.64 63.45L56.11 73.88L50.57 73.88L45.57 64.06ZM47.01 59.77C49.53 59.77 51 58.33 51 56.25C51 54.09 49.53 52.68 47.01 52.68L42.97 52.68L42.97 59.77L47.01 59.77Z" />
				<path id="&lt;Compound Path&gt;" fill-rule="evenodd" class="shp0" d="M71.88 47.82C78.83 47.82 85.02 52.9 85.02 61.14C85.02 69.35 78.83 74.42 71.88 74.42C64.97 74.42 58.78 69.35 58.78 61.14C58.78 52.9 64.97 47.82 71.88 47.82ZM71.88 69.6C75.84 69.6 79.87 66.87 79.87 61.11C79.87 55.35 75.84 52.61 71.88 52.61C67.96 52.61 63.93 55.35 63.93 61.11C63.93 66.87 67.96 69.6 71.88 69.6Z" />
				<path id="&lt;Compound Path&gt;" class="shp0" d="M89.34 73.88L89.34 48.36L105.32 48.36L105.32 53.04L94.31 53.04L94.31 58.87L104.28 58.87L104.28 63.3L94.31 63.3L94.31 69.2L105.32 69.2L105.32 73.88L89.34 73.88Z" />
				<path id="&lt;Compound Path&gt;" class="shp0" d="M110.29 73.88L110.29 48.36L115.26 48.36L115.26 69.13L126.64 69.13L126.64 73.88L110.29 73.88Z" />
				<path id="&lt;Compound Path&gt;" class="shp0" d="M146.77 73.9L152.03 73.9L142.56 99.42L137.45 99.42L128.02 73.9L133.46 73.9L140.12 92.87L146.77 73.9Z" />
				<path id="&lt;Compound Path&gt;" fill-rule="evenodd" class="shp0" d="M168.3 93.59L157.94 93.59L155.81 99.42L150.56 99.42L160.35 73.9L166.11 73.9L175.83 99.42L170.43 99.42L168.3 93.59ZM159.59 89.06L166.65 89.06L163.12 79.41L159.59 89.06Z" />
				<path id="&lt;Compound Path&gt;" class="shp0" d="M195.66 99.42L184.07 81.32L184.07 99.42L179.1 99.42L179.1 73.9L185.3 73.9L195.91 90.79L195.91 73.9L200.88 73.9L200.88 99.42L195.66 99.42Z" />
				<path id="&lt;Compound Path&gt;" class="shp0" d="M216.97 124.94L216.97 114.36L205.85 114.36L205.85 124.94L200.88 124.94L200.88 99.42L205.85 99.42L205.85 109.68L216.97 109.68L216.97 99.42L221.97 99.42L221.97 124.94L216.97 124.94Z" />
				<path id="&lt;Compound Path&gt;" class="shp0" d="M227.81 124.94L227.81 99.42L232.85 99.42L232.85 124.94L227.81 124.94Z" />
				<path id="&lt;Compound Path&gt;" class="shp0" d="M255.24 124.94L243.65 106.84L243.65 124.94L238.68 124.94L238.68 99.42L244.87 99.42L255.49 116.31L255.49 99.42L260.46 99.42L260.46 124.94L255.24 124.94Z" />
				<path id="&lt;Compound Path&gt;" class="shp0" d="M277.02 104.14L277.02 124.94L272.02 124.94L272.02 104.14L263.95 104.14L263.95 99.42L285.08 99.42L285.08 104.14L277.02 104.14Z" />
				<path id="&lt;Compound Path&gt;" class="shp0" d="M304.67 124.94L304.67 114.36L293.54 114.36L293.54 124.94L288.58 124.94L288.58 99.42L293.54 99.42L293.54 109.68L304.67 109.68L304.67 99.42L309.67 99.42L309.67 124.94L304.67 124.94Z" />
				<path id="&lt;Compound Path&gt;" class="shp0" d="M315.25 115.91L315.25 99.42L320.22 99.42L320.22 115.55C320.22 118.9 322.09 120.66 325.04 120.66C328.07 120.66 329.9 118.9 329.9 115.55L329.9 99.42L334.87 99.42L334.87 115.91C334.87 122.17 330.51 125.52 325.04 125.52C319.61 125.52 315.25 122.17 315.25 115.91Z" />
				<path id="&lt;Compound Path&gt;" class="shp0" d="M364.03 124.94L364.03 107.06L356.68 124.94L352.55 124.94L345.2 107.2L345.2 124.94L340.45 124.94L340.45 99.42L347 99.42L354.67 117.85L362.16 99.42L368.92 99.42L368.92 124.94L364.03 124.94Z" />
			</g>
			<path id="&lt;Path&gt;" class="shp1" d="M399.31 171.7L2.46 171.7L2.46 1.62L399.31 1.62L399.31 171.7Z" />
		</g>
	</g>
</svg>